<?xml version="1.0" encoding="UTF-8"?><svg id="Layer_1" xmlns="http://www.w3.org/2000/svg" viewBox="0 0 512 512"><defs><style>.cls-1{fill:#9d1d27;}.cls-2{fill:#fefefe;}</style></defs><path class="cls-1" d="M28.5,337.14H483.5V174.86H28.5v162.29Z"/><path class="cls-2" d="M62.6,209.08h93.29v93.53H62.6v-93.53h0Zm101.17-7.89H54.77v109.25h108.94v-109.25h.06Z"/><path class="cls-2" d="M72.91,237.59h72.67v-18.2H72.91v18.2Zm0,54.65h18.14v-18.26h-18.14v18.26Zm0-27.33h45.34v-18.26h-45.34v18.26Z"/><path class="cls-2" d="M209.85,225.6v23.54h6.52c7.14,0,8.82-2.73,8.82-11.86,0-9.75-1.06-11.68-9.63-11.68h-5.71Zm7.52-6.15c11.24,0,15.28,4.91,15.28,17.7s-4.29,18.07-15.34,18.07h-14.84v-35.77h14.91Zm-29.19,35.77h7.39v-35.77h-7.39v35.77Zm50.25-35.77h25.09v6.15h-17.76v8.38h15.53v6.15h-15.53v15.15h-7.39l.06-35.84Zm59.5,24.04c-.5,7.02-4.35,12.61-15.4,12.61s-16.21-5.34-16.21-18.51,5.15-18.88,16.21-18.88c8.76,0,14.16,3.73,15.34,11.92h-7.39c-.87-3.17-1.86-5.65-7.95-5.65s-8.76,3.66-8.76,13.23c0,7.45,1.99,11.61,8.88,11.61,4.97,0,7.27-1.55,7.89-6.27h7.39v-.06Zm19.63-24.04h25.09v6.15h-17.7v8.38h15.53v6.15h-15.53v15.15h-7.39v-35.84Zm29.94,35.77h7.39v-35.77h-7.39v35.77Zm21.68-29.63v9.44h6.65c5.9,0,7.95-.62,7.95-5.09,0-3.6-1.24-4.35-7.45-4.35h-7.14Zm-7.39-6.15h15.53c7.45,0,13.91,.19,13.91,10.74,0,7.02-2.92,9.56-6.96,10.56l9.32,14.53h-9.01l-8.76-14.1h-6.65v14.1h-7.39v-35.84h0Zm41.05,24.53c.31,3.73,.87,5.71,7.95,5.71,3.73,0,6.46-.56,6.46-4.22,0-2.17-.99-3.42-4.16-4.22l-8.7-2.36c-4.35-1.18-8.2-3.23-8.2-9.81,0-5.15,2.36-10.56,13.42-10.56s13.79,4.91,13.97,11.3h-7.33c-.37-2.98-.5-4.97-6.89-4.97-3.73,0-5.65,.68-5.65,3.54,0,2.61,1.55,3.35,3.6,3.91l7.95,2.17c5.09,1.37,9.38,3.35,9.38,10.5,0,10.06-8.63,11.06-13.97,11.06-11.68,0-14.84-4.6-15.28-12.05h7.45Zm34.41-18.26h-10.74v-6.27h28.88v6.27h-10.68v29.5h-7.39v-29.5h-.06Zm-241.66,67.51v9.44h6.65c6.71,0,8.2-.5,8.2-4.6s-1.37-4.84-6.77-4.84h-8.07Zm0-14.1v7.95h8.26c4.41,0,5.53-.56,5.53-4.22,0-2.98-.68-3.73-6.89-3.73h-6.89Zm10.06-6.15c7.02,0,10.87,2.48,10.87,9.32,0,5.53-2.55,6.71-4.1,7.33,4.41,1.74,5.47,5.09,5.47,8.82,0,5.9-2.67,10.31-12.55,10.31h-17.14v-35.84l17.45,.06Zm32.67,23.66l-4.84,.81c-2.67,.37-4.53,.93-4.53,3.73,0,1.99,.99,3.11,4.1,3.11,4.22,0,5.28-2.3,5.28-5.53v-2.11h0Zm-15.53-6.21c.37-6.77,4.22-8.63,11.3-8.63s11.12,1.93,11.12,7.7v19.25h-6.58v-1.99c-1.37,1.37-3.91,2.67-8.07,2.67-6.27,0-8.51-2.79-8.51-7.27,0-5.84,3.79-8.07,7.64-8.63l8.7-1.37v-1.61c0-2.48-1.24-3.17-4.47-3.17-3.42,0-4.16,.81-4.47,3.04h-6.65Zm45.4,3.23c0-4.04-.06-6.15-4.47-6.15-4.97,0-5.47,2.61-5.47,8.82v12.48h-6.89v-26.33h6.58v3.42c1.86-2.55,3.91-4.04,8.76-4.04,6.71,0,8.45,2.92,8.45,10.87v16.09h-6.96v-15.15h0Zm13.6-20.68h6.89v19.25l8.51-9.75h8.51l-9.19,10,9.56,16.33h-8.01l-6.4-11.43-2.98,3.11v8.32h-6.96l.06-35.84Z"/></svg>