<?xml version="1.0" encoding="utf-8"?>
<!-- Generator: Adobe Illustrator 26.0.3, SVG Export Plug-In . SVG Version: 6.00 Build 0)  -->
<svg version="1.0" id="Layer_1" xmlns="http://www.w3.org/2000/svg" xmlns:xlink="http://www.w3.org/1999/xlink" x="0px" y="0px"
	 viewBox="0 0 298 220" style="enable-background:new 0 0 298 220;" xml:space="preserve">
<style type="text/css">
	.st0{fill:#21317D;}
	.st1{fill:#ED1C24;}
</style>
<path id="path27506" class="st0" d="M140.6,129c1.5,1.2,2.4,3.1,2.4,5.1c0,5.6-4.2,7.6-9.1,7.6h-12.6V115h11.3c5.4,0,8.6,2,8.6,7.2
	c0,4.5-2.8,5.2-4.3,5.2v0.1C138.2,127.6,139.5,128.1,140.6,129 M130.9,125.6c2.3,0,3.2-0.9,3.2-2.6s-1.2-2.5-3.7-2.5h-2.2v5.1
	L130.9,125.6z M131.7,136.1c2.3,0,3.3-0.8,3.3-2.9s-1.4-2.9-3.4-2.9h-3.3v5.8L131.7,136.1z"/>
<path id="path27510" class="st0" d="M146.2,141.7V115h6.9v21.1h10.7v5.5L146.2,141.7z"/>
<path id="path27502" class="st0" d="M118.4,141.5c-1.1,0.3-2.2,0.4-3.4,0.4c-8.9,0-5.9-9.4-11.3-9.4h-1.2v9.2h-6.9V115h10
	c7.2,0,10.8,2.4,10.8,8.7c0,2.8-1.6,5.5-4.1,6.7c2.1,2.6,2,5.7,5.1,5.7h1.2L118.4,141.5z M104.8,127.3c2.8,0,4.8-1.1,4.8-3.3
	s-1.7-3.4-4.3-3.4h-2.8v6.8H104.8z"/>
<path id="path27518" class="st1" d="M209.2,134.8h-9.7l-2.4,6.9h-5l9.8-26.7h4.9l9.8,26.6h-5L209.2,134.8z M200.7,131.1h7.3
	l-3.6-10.2L200.7,131.1z"/>
<path id="path27522" class="st1" d="M235.2,141.7l-10.4-17.9v17.9H220V115h5l10.5,18.5V115h4.8v26.6L235.2,141.7z"/>
<path id="path27514" class="st1" d="M170.5,141.7V115h9.7c5.5,0,8.6,2.1,8.6,7s-2.9,5.6-4.1,5.6v0.1c3.4,0.2,6.1,3.1,5.9,6.5
	c0,0,0,0,0,0.1c0,5.6-4.4,7.4-9.3,7.4L170.5,141.7z M180,126.3c3,0,4-1.5,4-3.7s-1.5-3.6-4.8-3.6h-3.9v7.3H180z M180.4,137.8
	c2.8,0,5.1-0.9,5.1-4.1c0-3-2.2-4.1-5.1-4.1h-5.1v8.1H180.4z"/>
<path id="path27526" class="st1" d="M268,138.1c-3.4,0-3.5-5.8-6.4-8.6c-1-1.1-2.3-2-3.8-2.4l10.1-12h-6.1l-10.2,11.9V115h-4.8v26.6
	h4.8v-7.5l3-3.5h0.3c5.6,0,3.8,11.1,11.6,11.1c0.9,0,1.7-0.1,2.6-0.2V138L268,138.1z"/>
<path id="path27530" class="st0" d="M42.2,91.9V75H28.9v40C28.9,105.5,34,96.7,42.2,91.9"/>
<path id="path27534" class="st0" d="M57.2,88.4v13.4c7.3,0.9,12.5,7.6,11.6,14.9c-0.9,7.3-7.6,12.5-14.9,11.6
	c-6.7-0.8-11.7-6.5-11.7-13.3l0,0v23.1c12.8,7.4,29.1,3,36.5-9.7s3-29.1-9.7-36.5C65.4,89.9,61.4,88.6,57.2,88.4"/>
<path id="path27538" class="st1" d="M42.2,91.9C34,96.7,28.9,105.5,28.9,115v30h13.3v-30l0,0c0-6.7,5-12.4,11.7-13.2V88.4
	C49.8,88.6,45.8,89.8,42.2,91.9"/>
</svg>
